<?xml version="1.0" encoding="UTF-8" standalone="no"?>
<!-- Created with Inkscape (http://www.inkscape.org/) -->

<svg
   xmlns:dc="http://purl.org/dc/elements/1.1/"
   xmlns:cc="http://creativecommons.org/ns#"
   xmlns:rdf="http://www.w3.org/1999/02/22-rdf-syntax-ns#"
   xmlns:svg="http://www.w3.org/2000/svg"
   xmlns="http://www.w3.org/2000/svg"
   xmlns:xlink="http://www.w3.org/1999/xlink"
   version="1.1"
   width="210"
   height="255"
   id="svg2985"
   style="display:inline;enable-background:new">
  <metadata
     id="metadata2991">
    <rdf:RDF>
      <cc:Work
         rdf:about="">
        <dc:format>image/svg+xml</dc:format>
        <dc:type
           rdf:resource="http://purl.org/dc/dcmitype/StillImage" />
        <dc:title></dc:title>
      </cc:Work>
    </rdf:RDF>
  </metadata>
  <defs
     id="defs2989">
    <linearGradient
       id="linearGradient3954">
      <stop
         id="stop3956"
         style="stop-color:#ffffff;stop-opacity:1"
         offset="0" />
      <stop
         id="stop3958"
         style="stop-color:#ffffff;stop-opacity:0"
         offset="1" />
    </linearGradient>
    <linearGradient
       id="linearGradient3886">
      <stop
         id="stop3888"
         style="stop-color:#ffffff;stop-opacity:1"
         offset="0" />
      <stop
         id="stop3890"
         style="stop-color:#ffffff;stop-opacity:0"
         offset="1" />
    </linearGradient>
    <linearGradient
       id="linearGradient3790">
      <stop
         id="stop3792"
         style="stop-color:#d0e4cc;stop-opacity:1"
         offset="0" />
      <stop
         id="stop3794"
         style="stop-color:#fbffec;stop-opacity:1"
         offset="1" />
    </linearGradient>
    <linearGradient
       x1="24.152117"
       y1="10.990507"
       x2="24.152117"
       y2="49.509247"
       id="linearGradient3796"
       xlink:href="#linearGradient3790"
       gradientUnits="userSpaceOnUse" />
    <linearGradient
       x1="24"
       y1="11"
       x2="24"
       y2="50"
       id="linearGradient3796-5"
       xlink:href="#linearGradient3790-2"
       gradientUnits="userSpaceOnUse" />
    <linearGradient
       id="linearGradient3790-2">
      <stop
         id="stop3792-3"
         style="stop-color:#d0e4cc;stop-opacity:1"
         offset="0" />
      <stop
         id="stop3794-1"
         style="stop-color:#fbffec;stop-opacity:1"
         offset="1" />
    </linearGradient>
    <linearGradient
       x1="24.152117"
       y1="10.990507"
       x2="24.152117"
       y2="49.509247"
       id="linearGradient3839"
       xlink:href="#linearGradient3790-2"
       gradientUnits="userSpaceOnUse"
       gradientTransform="translate(-1.2718506e-6,-1.0498047e-7)" />
    <linearGradient
       x1="39.823715"
       y1="5.2987609"
       x2="36.841343"
       y2="7.9283142"
       id="linearGradient3892"
       xlink:href="#linearGradient3886"
       gradientUnits="userSpaceOnUse"
       gradientTransform="matrix(1.0241955,0,0,1.0535704,-0.8753374,-0.45861204)" />
    <linearGradient
       x1="39.708466"
       y1="5.1708555"
       x2="36.592773"
       y2="8.6400986"
       id="linearGradient3960"
       xlink:href="#linearGradient3954"
       gradientUnits="userSpaceOnUse" />
    <linearGradient
       x1="24.152117"
       y1="10.990507"
       x2="24.152117"
       y2="49.509247"
       id="linearGradient4057"
       xlink:href="#linearGradient3790-2"
       gradientUnits="userSpaceOnUse"
       gradientTransform="translate(-1.2718506e-6,-1.0498047e-7)" />
    <linearGradient
       x1="39.708466"
       y1="5.1708555"
       x2="36.592773"
       y2="8.6400986"
       id="linearGradient4059"
       xlink:href="#linearGradient3954"
       gradientUnits="userSpaceOnUse" />
    <linearGradient
       x1="24.152117"
       y1="10.990507"
       x2="24.152117"
       y2="49.509247"
       id="linearGradient4070"
       xlink:href="#linearGradient3790-2"
       gradientUnits="userSpaceOnUse"
       gradientTransform="translate(-1.2718506e-6,-1.0498047e-7)" />
    <linearGradient
       x1="39.708466"
       y1="5.1708555"
       x2="36.592773"
       y2="8.6400986"
       id="linearGradient4072"
       xlink:href="#linearGradient3954"
       gradientUnits="userSpaceOnUse" />
    <linearGradient
       x1="24.152117"
       y1="10.990507"
       x2="24.152117"
       y2="49.509247"
       id="linearGradient4078"
       xlink:href="#linearGradient3790-2"
       gradientUnits="userSpaceOnUse"
       gradientTransform="translate(-1.2718506e-6,-1.0498047e-7)" />
    <linearGradient
       x1="24.152117"
       y1="10.990507"
       x2="24.152117"
       y2="49.509247"
       id="linearGradient4078-2"
       xlink:href="#linearGradient3790-2-9"
       gradientUnits="userSpaceOnUse"
       gradientTransform="translate(-1.2718506e-6,-1.0498047e-7)" />
    <linearGradient
       id="linearGradient3790-2-9">
      <stop
         id="stop3792-3-4"
         style="stop-color:#d0e4cc;stop-opacity:1"
         offset="0" />
      <stop
         id="stop3794-1-4"
         style="stop-color:#fbffec;stop-opacity:1"
         offset="1" />
    </linearGradient>
    <linearGradient
       x1="39.708466"
       y1="5.1708555"
       x2="36.592773"
       y2="8.6400986"
       id="linearGradient4072-8"
       xlink:href="#linearGradient3954-2"
       gradientUnits="userSpaceOnUse" />
    <linearGradient
       id="linearGradient3954-2">
      <stop
         id="stop3956-7"
         style="stop-color:#ffffff;stop-opacity:1"
         offset="0" />
      <stop
         id="stop3958-2"
         style="stop-color:#ffffff;stop-opacity:0"
         offset="1" />
    </linearGradient>
    <filter
       x="-0.10855621"
       y="-0.10751629"
       width="1.2171124"
       height="1.2150326"
       color-interpolation-filters="sRGB"
       id="filter3970-5">
      <feGaussianBlur
         id="feGaussianBlur3972-8"
         stdDeviation="0.12800763" />
    </filter>
    <linearGradient
       x1="24.152117"
       y1="10.990507"
       x2="24.152117"
       y2="49.509247"
       id="linearGradient4602"
       xlink:href="#linearGradient3790-2-9"
       gradientUnits="userSpaceOnUse"
       gradientTransform="translate(-1.2718506e-6,-1.0498047e-7)" />
    <linearGradient
       x1="24.152117"
       y1="10.990507"
       x2="24.152117"
       y2="49.509247"
       id="linearGradient4812"
       xlink:href="#linearGradient3790-2-9"
       gradientUnits="userSpaceOnUse"
       gradientTransform="translate(-1.2718506e-6,-1.0498047e-7)" />
    <linearGradient
       x1="39.708466"
       y1="5.1708555"
       x2="36.592773"
       y2="8.6400986"
       id="linearGradient4814"
       xlink:href="#linearGradient3954-2"
       gradientUnits="userSpaceOnUse" />
    <linearGradient
       x1="24.152117"
       y1="10.990507"
       x2="24.152117"
       y2="49.509247"
       id="linearGradient3056"
       xlink:href="#linearGradient3790-2-9"
       gradientUnits="userSpaceOnUse"
       gradientTransform="matrix(4.9777652,0,0,4.9841254,-5.2205412,-205.64934)" />
  </defs>
  <g
     transform="translate(39.768324,209.71794)"
     id="g4146"
     style="stroke-width:0.1;stroke-miterlimit:4;stroke-dasharray:none;display:inline" />
  <g
     transform="matrix(1.0005937,0,0,1,-1.3758072,203.40625)"
     id="g4630"
     style="stroke-width:0.1;stroke-miterlimit:4;stroke-dasharray:none;display:inline;enable-background:new">
    <g
       id="g3062">
      <path
         d="m 60.650799,-203.40625 46.128381,0.24898 68.38205,-0.24898 c 22.85959,-0.0832 36.08916,15.8716 36.08916,40.43349 l 0,154.56651 c 0,12.2809489 -13.98973,27.659009 -21.44803,35.672659 -7.4583,8.01365 -22.12678,24.327341 -33.55664,24.327341 l -112.995267,0 c -22.859731,0 -41.2683711,-5.592036 -41.3154505,-30.153875 L 1.6238475,-140.89321 c -0.012343,-6.43939 17.3462155,-24.33688 24.8045125,-32.35053 7.458297,-8.01365 22.792706,-30.2242 34.222439,-30.16251 z"
         id="rect4031"
         style="fill:#000000;fill-opacity:1;fill-rule:nonzero;stroke:none" />
      <path
         d="m 69.445942,-190.69696 104.533068,0 c 13.78841,0 24.80913,11.11483 24.88883,24.92063 l 0.87995,152.443395 c 0.0116,2.002948 -12.64034,31.969239 -25.76878,31.969239 l -104.533068,0 c -13.788409,0 -24.888826,-11.1145969 -24.888826,-24.9206265 l 0,-159.4920075 c 0,-13.80603 11.100417,-24.92063 24.888826,-24.92063 z"
         id="rect3767"
         style="fill:#005f00;fill-opacity:1;fill-rule:nonzero;stroke:none" />
      <rect
         width="149.33296"
         height="209.33327"
         rx="24.888826"
         ry="24.920628"
         x="29.623821"
         y="-175.7446"
         id="rect3861"
         style="fill:#cddacd;fill-opacity:1;fill-rule:nonzero;stroke:none" />
      <rect
         width="154.31071"
         height="199.36502"
         rx="24.888826"
         ry="24.920628"
         x="19.668289"
         y="-160.79222"
         id="rect3765"
         style="fill:#ffffff;fill-opacity:1;fill-rule:nonzero;stroke:none" />
      <rect
         width="149.33296"
         height="189.39676"
         rx="19.91106"
         ry="19.936502"
         x="14.690526"
         y="-150.82396"
         id="rect3008"
         style="fill:url(#linearGradient3056);fill-opacity:1;fill-rule:nonzero;stroke:none" />
      <path
         d="m 40.046875,5.5 a 0.5625,0.5625 0 1 1 -1.125,0 0.5625,0.5625 0 1 1 1.125,0 z"
         transform="matrix(4.9777652,0,0,4.9841254,-5.2205349,-205.64934)"
         id="path3932"
         style="fill:#ffffff;fill-opacity:1;fill-rule:nonzero;stroke:none" />
      <path
         d="m 39.055616,5.4739213 -4.051321,3.681414 1.155314,0.8991587 3.549573,-4.2296427 z"
         transform="matrix(7.0971322,0,0,6.6887488,-88.145577,-216.23613)"
         id="path3936"
         style="fill:url(#linearGradient4814);fill-opacity:1;stroke:none;filter:url(#filter3970-5)" />
      <path
         d="m 36.946328,10.043262 a 2.0108349,1.9445436 0 1 1 -4.021669,0 2.0108349,1.9445436 0 1 1 4.021669,0 z"
         transform="matrix(4.3320756,0,0,4.4854841,16.789147,-201.30858)"
         id="path3882"
         style="fill:#ffffff;fill-opacity:1;fill-rule:nonzero;stroke:none" />
      <g
         transform="matrix(4.9748117,0,0,4.9841254,196.31546,-191.18541)"
         id="g7499"
         style="stroke-width:0.1;stroke-miterlimit:4;stroke-dasharray:none;display:inline;enable-background:new">
        <g
           transform="matrix(0.59542857,0,0,0.59542857,-31.994404,9.5143477)"
           id="g5773">
          <path
             d="m 31.8125,31.5 a 13.25,13.25 0 1 1 -26.5,0 13.25,13.25 0 1 1 26.5,0 z"
             transform="matrix(0.50700757,0,0,0.50700757,8.213681,13.560511)"
             id="path5775"
             style="fill:#bf3718;fill-opacity:1" />
          <g
             transform="matrix(0.70710678,-0.70710678,0.70710678,0.70710678,-15.719501,21.112266)"
             id="g5777">
            <path
               d="m 17.27501,29.531249 c 0,0 -1.20883,1 -2.7,1 -1.49117,0 -2.7,-1 -2.7,-1 0,0 1.20883,-1 2.7,-1 1.49117,0 2.7,1 2.7,1 z"
               id="path5779"
               style="fill:#ffffff;fill-opacity:1" />
            <path
               d="m 17.975008,29.531249 c 0,0 1.20883,-1 2.7,-1 1.49117,0 2.7,1 2.7,1 0,0 -1.20883,1 -2.7,1 -1.49117,0 -2.7,-1 -2.7,-1 z"
               id="path5781"
               style="fill:#ffffff;fill-opacity:1" />
            <path
               d="m 17.625009,29.881248 c 0,0 1,1.20883 1,2.7 0,1.49117 -1,2.7 -1,2.7 0,0 -1,-1.20883 -1,-2.7 0,-1.49117 1,-2.7 1,-2.7 z"
               id="path5783"
               style="fill:#ffffff;fill-opacity:1" />
            <path
               d="m 17.625009,29.18125 c 0,0 -1,-1.20883 -1,-2.7 0,-1.49117 1,-2.7 1,-2.7 0,0 1,1.20883 1,2.7 0,1.49117 -1,2.7 -1,2.7 z"
               id="path5785"
               style="fill:#ffffff;fill-opacity:1" />
          </g>
        </g>
        <g
           transform="matrix(0.59542857,0,0,0.59542857,-22.994434,9.5143477)"
           id="g7345">
          <path
             d="m 31.8125,31.5 a 13.25,13.25 0 1 1 -26.5,0 13.25,13.25 0 1 1 26.5,0 z"
             transform="matrix(0.50700757,0,0,0.50700757,8.213681,13.560511)"
             id="path7347"
             style="fill:#bf3718;fill-opacity:1" />
          <g
             transform="matrix(0.70710678,-0.70710678,0.70710678,0.70710678,-15.719501,21.112266)"
             id="g7349">
            <path
               d="m 17.27501,29.531249 c 0,0 -1.20883,1 -2.7,1 -1.49117,0 -2.7,-1 -2.7,-1 0,0 1.20883,-1 2.7,-1 1.49117,0 2.7,1 2.7,1 z"
               id="path7351"
               style="fill:#ffffff;fill-opacity:1" />
            <path
               d="m 17.975008,29.531249 c 0,0 1.20883,-1 2.7,-1 1.49117,0 2.7,1 2.7,1 0,0 -1.20883,1 -2.7,1 -1.49117,0 -2.7,-1 -2.7,-1 z"
               id="path7353"
               style="fill:#ffffff;fill-opacity:1" />
            <path
               d="m 17.625009,29.881248 c 0,0 1,1.20883 1,2.7 0,1.49117 -1,2.7 -1,2.7 0,0 -1,-1.20883 -1,-2.7 0,-1.49117 1,-2.7 1,-2.7 z"
               id="path7355"
               style="fill:#ffffff;fill-opacity:1" />
            <path
               d="m 17.625009,29.18125 c 0,0 -1,-1.20883 -1,-2.7 0,-1.49117 1,-2.7 1,-2.7 0,0 1,1.20883 1,2.7 0,1.49117 -1,2.7 -1,2.7 z"
               id="path7357"
               style="fill:#ffffff;fill-opacity:1" />
          </g>
        </g>
        <g
           transform="matrix(0.59542857,0,0,0.59542857,-40.994434,9.5143477)"
           id="g7359">
          <path
             d="m 31.8125,31.5 a 13.25,13.25 0 1 1 -26.5,0 13.25,13.25 0 1 1 26.5,0 z"
             transform="matrix(0.50700757,0,0,0.50700757,8.213681,13.560511)"
             id="path7361"
             style="fill:#bf3718;fill-opacity:1" />
          <g
             transform="matrix(0.70710678,-0.70710678,0.70710678,0.70710678,-15.719501,21.112266)"
             id="g7363">
            <path
               d="m 17.27501,29.531249 c 0,0 -1.20883,1 -2.7,1 -1.49117,0 -2.7,-1 -2.7,-1 0,0 1.20883,-1 2.7,-1 1.49117,0 2.7,1 2.7,1 z"
               id="path7365"
               style="fill:#ffffff;fill-opacity:1" />
            <path
               d="m 17.975008,29.531249 c 0,0 1.20883,-1 2.7,-1 1.49117,0 2.7,1 2.7,1 0,0 -1.20883,1 -2.7,1 -1.49117,0 -2.7,-1 -2.7,-1 z"
               id="path7367"
               style="fill:#ffffff;fill-opacity:1" />
            <path
               d="m 17.625009,29.881248 c 0,0 1,1.20883 1,2.7 0,1.49117 -1,2.7 -1,2.7 0,0 -1,-1.20883 -1,-2.7 0,-1.49117 1,-2.7 1,-2.7 z"
               id="path7369"
               style="fill:#ffffff;fill-opacity:1" />
            <path
               d="m 17.625009,29.18125 c 0,0 -1,-1.20883 -1,-2.7 0,-1.49117 1,-2.7 1,-2.7 0,0 1,1.20883 1,2.7 0,1.49117 -1,2.7 -1,2.7 z"
               id="path7371"
               style="fill:#ffffff;fill-opacity:1" />
          </g>
        </g>
        <g
           transform="matrix(0.59542857,0,0,0.59542857,-31.994404,-1.9857496)"
           id="g7373">
          <path
             d="m 31.8125,31.5 a 13.25,13.25 0 1 1 -26.5,0 13.25,13.25 0 1 1 26.5,0 z"
             transform="matrix(0.50700757,0,0,0.50700757,8.213681,13.560511)"
             id="path7375"
             style="fill:#038249;fill-opacity:1" />
          <g
             transform="matrix(0.70710678,-0.70710678,0.70710678,0.70710678,-15.719501,21.112266)"
             id="g7377">
            <path
               d="m 17.27501,29.531249 c 0,0 -1.20883,1 -2.7,1 -1.49117,0 -2.7,-1 -2.7,-1 0,0 1.20883,-1 2.7,-1 1.49117,0 2.7,1 2.7,1 z"
               id="path7379"
               style="fill:#ffffff;fill-opacity:1" />
            <path
               d="m 17.975008,29.531249 c 0,0 1.20883,-1 2.7,-1 1.49117,0 2.7,1 2.7,1 0,0 -1.20883,1 -2.7,1 -1.49117,0 -2.7,-1 -2.7,-1 z"
               id="path7381"
               style="fill:#ffffff;fill-opacity:1" />
            <path
               d="m 17.625009,29.881248 c 0,0 1,1.20883 1,2.7 0,1.49117 -1,2.7 -1,2.7 0,0 -1,-1.20883 -1,-2.7 0,-1.49117 1,-2.7 1,-2.7 z"
               id="path7383"
               style="fill:#ffffff;fill-opacity:1" />
            <path
               d="m 17.625009,29.18125 c 0,0 -1,-1.20883 -1,-2.7 0,-1.49117 1,-2.7 1,-2.7 0,0 1,1.20883 1,2.7 0,1.49117 -1,2.7 -1,2.7 z"
               id="path7385"
               style="fill:#ffffff;fill-opacity:1" />
          </g>
        </g>
        <g
           transform="matrix(0.59542857,0,0,0.59542857,-22.994434,-1.9857496)"
           id="g7387">
          <path
             d="m 31.8125,31.5 a 13.25,13.25 0 1 1 -26.5,0 13.25,13.25 0 1 1 26.5,0 z"
             transform="matrix(0.50700757,0,0,0.50700757,8.213681,13.560511)"
             id="path7389"
             style="fill:#038249;fill-opacity:1" />
          <g
             transform="matrix(0.70710678,-0.70710678,0.70710678,0.70710678,-15.719501,21.112266)"
             id="g7391">
            <path
               d="m 17.27501,29.531249 c 0,0 -1.20883,1 -2.7,1 -1.49117,0 -2.7,-1 -2.7,-1 0,0 1.20883,-1 2.7,-1 1.49117,0 2.7,1 2.7,1 z"
               id="path7393"
               style="fill:#ffffff;fill-opacity:1" />
            <path
               d="m 17.975008,29.531249 c 0,0 1.20883,-1 2.7,-1 1.49117,0 2.7,1 2.7,1 0,0 -1.20883,1 -2.7,1 -1.49117,0 -2.7,-1 -2.7,-1 z"
               id="path7395"
               style="fill:#ffffff;fill-opacity:1" />
            <path
               d="m 17.625009,29.881248 c 0,0 1,1.20883 1,2.7 0,1.49117 -1,2.7 -1,2.7 0,0 -1,-1.20883 -1,-2.7 0,-1.49117 1,-2.7 1,-2.7 z"
               id="path7397"
               style="fill:#ffffff;fill-opacity:1" />
            <path
               d="m 17.625009,29.18125 c 0,0 -1,-1.20883 -1,-2.7 0,-1.49117 1,-2.7 1,-2.7 0,0 1,1.20883 1,2.7 0,1.49117 -1,2.7 -1,2.7 z"
               id="path7399"
               style="fill:#ffffff;fill-opacity:1" />
          </g>
        </g>
        <g
           transform="matrix(0.59542857,0,0,0.59542857,-40.994434,-1.9857496)"
           id="g7401">
          <path
             d="m 31.8125,31.5 a 13.25,13.25 0 1 1 -26.5,0 13.25,13.25 0 1 1 26.5,0 z"
             transform="matrix(0.50700757,0,0,0.50700757,8.213681,13.560511)"
             id="path7403"
             style="fill:#038249;fill-opacity:1" />
          <g
             transform="matrix(0.70710678,-0.70710678,0.70710678,0.70710678,-15.719501,21.112266)"
             id="g7405">
            <path
               d="m 17.27501,29.531249 c 0,0 -1.20883,1 -2.7,1 -1.49117,0 -2.7,-1 -2.7,-1 0,0 1.20883,-1 2.7,-1 1.49117,0 2.7,1 2.7,1 z"
               id="path7407"
               style="fill:#ffffff;fill-opacity:1" />
            <path
               d="m 17.975008,29.531249 c 0,0 1.20883,-1 2.7,-1 1.49117,0 2.7,1 2.7,1 0,0 -1.20883,1 -2.7,1 -1.49117,0 -2.7,-1 -2.7,-1 z"
               id="path7409"
               style="fill:#ffffff;fill-opacity:1" />
            <path
               d="m 17.625009,29.881248 c 0,0 1,1.20883 1,2.7 0,1.49117 -1,2.7 -1,2.7 0,0 -1,-1.20883 -1,-2.7 0,-1.49117 1,-2.7 1,-2.7 z"
               id="path7411"
               style="fill:#ffffff;fill-opacity:1" />
            <path
               d="m 17.625009,29.18125 c 0,0 -1,-1.20883 -1,-2.7 0,-1.49117 1,-2.7 1,-2.7 0,0 1,1.20883 1,2.7 0,1.49117 -1,2.7 -1,2.7 z"
               id="path7413"
               style="fill:#ffffff;fill-opacity:1" />
          </g>
        </g>
        <g
           transform="matrix(0.59542857,0,0,0.59542857,-31.994404,21.01425)"
           id="g7457">
          <path
             d="m 31.8125,31.5 a 13.25,13.25 0 1 1 -26.5,0 13.25,13.25 0 1 1 26.5,0 z"
             transform="matrix(0.50700757,0,0,0.50700757,8.213681,13.560511)"
             id="path7459"
             style="fill:#2a3b92;fill-opacity:1" />
          <g
             transform="matrix(0.70710678,-0.70710678,0.70710678,0.70710678,-15.719501,21.112266)"
             id="g7461">
            <path
               d="m 17.27501,29.531249 c 0,0 -1.20883,1 -2.7,1 -1.49117,0 -2.7,-1 -2.7,-1 0,0 1.20883,-1 2.7,-1 1.49117,0 2.7,1 2.7,1 z"
               id="path7463"
               style="fill:#ffffff;fill-opacity:1" />
            <path
               d="m 17.975008,29.531249 c 0,0 1.20883,-1 2.7,-1 1.49117,0 2.7,1 2.7,1 0,0 -1.20883,1 -2.7,1 -1.49117,0 -2.7,-1 -2.7,-1 z"
               id="path7465"
               style="fill:#ffffff;fill-opacity:1" />
            <path
               d="m 17.625009,29.881248 c 0,0 1,1.20883 1,2.7 0,1.49117 -1,2.7 -1,2.7 0,0 -1,-1.20883 -1,-2.7 0,-1.49117 1,-2.7 1,-2.7 z"
               id="path7467"
               style="fill:#ffffff;fill-opacity:1" />
            <path
               d="m 17.625009,29.18125 c 0,0 -1,-1.20883 -1,-2.7 0,-1.49117 1,-2.7 1,-2.7 0,0 1,1.20883 1,2.7 0,1.49117 -1,2.7 -1,2.7 z"
               id="path7469"
               style="fill:#ffffff;fill-opacity:1" />
          </g>
        </g>
        <g
           transform="matrix(0.59542857,0,0,0.59542857,-22.994434,21.01425)"
           id="g7471">
          <path
             d="m 31.8125,31.5 a 13.25,13.25 0 1 1 -26.5,0 13.25,13.25 0 1 1 26.5,0 z"
             transform="matrix(0.50700757,0,0,0.50700757,8.213681,13.560511)"
             id="path7473"
             style="fill:#2a3b92;fill-opacity:1" />
          <g
             transform="matrix(0.70710678,-0.70710678,0.70710678,0.70710678,-15.719501,21.112266)"
             id="g7475">
            <path
               d="m 17.27501,29.531249 c 0,0 -1.20883,1 -2.7,1 -1.49117,0 -2.7,-1 -2.7,-1 0,0 1.20883,-1 2.7,-1 1.49117,0 2.7,1 2.7,1 z"
               id="path7477"
               style="fill:#ffffff;fill-opacity:1" />
            <path
               d="m 17.975008,29.531249 c 0,0 1.20883,-1 2.7,-1 1.49117,0 2.7,1 2.7,1 0,0 -1.20883,1 -2.7,1 -1.49117,0 -2.7,-1 -2.7,-1 z"
               id="path7479"
               style="fill:#ffffff;fill-opacity:1" />
            <path
               d="m 17.625009,29.881248 c 0,0 1,1.20883 1,2.7 0,1.49117 -1,2.7 -1,2.7 0,0 -1,-1.20883 -1,-2.7 0,-1.49117 1,-2.7 1,-2.7 z"
               id="path7481"
               style="fill:#ffffff;fill-opacity:1" />
            <path
               d="m 17.625009,29.18125 c 0,0 -1,-1.20883 -1,-2.7 0,-1.49117 1,-2.7 1,-2.7 0,0 1,1.20883 1,2.7 0,1.49117 -1,2.7 -1,2.7 z"
               id="path7483"
               style="fill:#ffffff;fill-opacity:1" />
          </g>
        </g>
        <g
           transform="matrix(0.59542857,0,0,0.59542857,-40.994434,21.01425)"
           id="g7485">
          <path
             d="m 31.8125,31.5 a 13.25,13.25 0 1 1 -26.5,0 13.25,13.25 0 1 1 26.5,0 z"
             transform="matrix(0.50700757,0,0,0.50700757,8.213681,13.560511)"
             id="path7487"
             style="fill:#2a3b92;fill-opacity:1" />
          <g
             transform="matrix(0.70710678,-0.70710678,0.70710678,0.70710678,-15.719501,21.112266)"
             id="g7489">
            <path
               d="m 17.27501,29.531249 c 0,0 -1.20883,1 -2.7,1 -1.49117,0 -2.7,-1 -2.7,-1 0,0 1.20883,-1 2.7,-1 1.49117,0 2.7,1 2.7,1 z"
               id="path7491"
               style="fill:#ffffff;fill-opacity:1" />
            <path
               d="m 17.975008,29.531249 c 0,0 1.20883,-1 2.7,-1 1.49117,0 2.7,1 2.7,1 0,0 -1.20883,1 -2.7,1 -1.49117,0 -2.7,-1 -2.7,-1 z"
               id="path7493"
               style="fill:#ffffff;fill-opacity:1" />
            <path
               d="m 17.625009,29.881248 c 0,0 1,1.20883 1,2.7 0,1.49117 -1,2.7 -1,2.7 0,0 -1,-1.20883 -1,-2.7 0,-1.49117 1,-2.7 1,-2.7 z"
               id="path7495"
               style="fill:#ffffff;fill-opacity:1" />
            <path
               d="m 17.625009,29.18125 c 0,0 -1,-1.20883 -1,-2.7 0,-1.49117 1,-2.7 1,-2.7 0,0 1,1.20883 1,2.7 0,1.49117 -1,2.7 -1,2.7 z"
               id="path7497"
               style="fill:#ffffff;fill-opacity:1" />
          </g>
        </g>
      </g>
    </g>
  </g>
  <path
     d="m 31.8125,31.5 a 13.25,13.25 0 1 1 -26.5,0 13.25,13.25 0 1 1 26.5,0 z"
     transform="matrix(2.525263,0,0,2.5269893,41.159054,67.680486)"
     id="path3845"
     style="fill:#2a3b92;fill-opacity:0" />
</svg>
